<svg width="2636" height="350" viewBox="0 0 2636 350" fill="none" xmlns="http://www.w3.org/2000/svg">
<path d="M301.5 -2.38419e-05H49.5L0.5 350H350.5L321 139.5L193 201.5L199.5 249H174.5L151.5 85H176.5L190 180.5L318 118L301.5 -2.38419e-05ZM651.195 -2.38419e-05H325.695L374.695 350H519.695L499.195 204H524.195L544.695 350H700.195L651.195 -2.38419e-05ZM478.195 47H503.195L519.695 164H494.695L478.195 47ZM1025.3 -2.38419e-05H675.305L724.305 350H862.805L837.805 171.5H862.805L887.805 350H976.305L997.805 196.5L943.805 170L946.805 148L1000.8 175L1025.3 -2.38419e-05ZM846.305 51L857.305 131.5H832.305L821.305 51H846.305ZM1335.5 -2.38419e-05H1049.5L1000.5 350H1286.5L1324 82L1112 315.5L1110.5 282.5L1330 39.5L1335.5 -2.38419e-05ZM1611.56 -2.38419e-05H1359.56L1310.56 350H1623.06L1648.06 260.5L1611.56 -2.38419e-05ZM1486.56 85L1509.56 249H1484.56L1461.56 85H1486.56ZM1936.25 -2.38419e-05H1635.75L1684.75 350H1985.25L1966.25 214L1749.25 319L1752.75 294L1963.25 193L1956.75 148L1812.25 78L1808.75 53L1953.25 123L1936.25 -2.38419e-05ZM2310.46 -2.38419e-05H1960.46L2009.46 350H2200.46L2185.96 248.5H2210.96L2225.46 350H2261.46L2297.46 93.5L2147.96 166.5L2159.46 249H2134.46L2111.46 85H2136.46L2144.96 145.5L2300.96 66.5L2310.46 -2.38419e-05ZM2635.16 -2.38419e-05H2334.66L2308.16 190.5L2514.16 205.5L2511.16 226L2305.16 211L2285.66 350H2586.16L2609.66 181.5L2429.16 94.5L2425.66 69.5L2612.66 159.5L2635.16 -2.38419e-05Z" fill="#292929"/>
</svg>
